<svg width="15" height="17" viewBox="0 0 15 17" fill="none" xmlns="http://www.w3.org/2000/svg">
<path d="M12 6.47619H8.25V4.04762H6.75V6.47619H3C2.20435 6.47619 1.44129 6.81735 0.87868 7.42461C0.316071 8.03187 0 8.85549 0 9.71429V17H15V9.71429C15 8.85549 14.6839 8.03187 14.1213 7.42461C13.5587 6.81735 12.7956 6.47619 12 6.47619ZM13.5 15.381H1.5V12.9524C1.88745 12.9363 2.26773 12.8346 2.61732 12.6536C2.96692 12.4726 3.2784 12.2161 3.5325 11.9C3.63744 11.7263 3.78088 11.5836 3.94982 11.4848C4.11876 11.386 4.30786 11.3342 4.5 11.3342C4.69214 11.3342 4.88124 11.386 5.05018 11.4848C5.21912 11.5836 5.36256 11.7263 5.4675 11.9C5.71291 12.2264 6.02272 12.4896 6.37434 12.6704C6.72596 12.8512 7.11053 12.945 7.5 12.945C7.88947 12.945 8.27404 12.8512 8.62566 12.6704C8.97728 12.4896 9.28709 12.2264 9.5325 11.9C9.63744 11.7263 9.78088 11.5836 9.94982 11.4848C10.1188 11.386 10.3079 11.3342 10.5 11.3342C10.6921 11.3342 10.8812 11.386 11.0502 11.4848C11.2191 11.5836 11.3626 11.7263 11.4675 11.9C11.7216 12.2161 12.0331 12.4726 12.3827 12.6536C12.7323 12.8346 13.1125 12.9363 13.5 12.9524V15.381ZM13.5 11.3333C13.1226 11.2836 12.7768 11.0811 12.5325 10.7667C12.2871 10.4402 11.9773 10.177 11.6257 9.99625C11.274 9.81546 10.8895 9.72164 10.5 9.72164C10.1105 9.72164 9.72596 9.81546 9.37434 9.99625C9.02272 10.177 8.71291 10.4402 8.4675 10.7667C8.36256 10.9404 8.21912 11.0831 8.05018 11.1819C7.88124 11.2807 7.69214 11.3324 7.5 11.3324C7.30786 11.3324 7.11876 11.2807 6.94982 11.1819C6.78088 11.0831 6.63744 10.9404 6.5325 10.7667C6.28709 10.4402 5.97728 10.177 5.62566 9.99625C5.27404 9.81546 4.88947 9.72164 4.5 9.72164C4.11053 9.72164 3.72596 9.81546 3.37434 9.99625C3.02272 10.177 2.71291 10.4402 2.4675 10.7667C2.22318 11.0811 1.87738 11.2836 1.5 11.3333V9.71429C1.5 9.28489 1.65804 8.87308 1.93934 8.56945C2.22064 8.26582 2.60218 8.09524 3 8.09524H12C12.3978 8.09524 12.7794 8.26582 13.0607 8.56945C13.342 8.87308 13.5 9.28489 13.5 9.71429V11.3333ZM7.5 3.3919C7.80831 3.3919 8.104 3.25971 8.32201 3.02439C8.54002 2.78908 8.6625 2.46993 8.6625 2.13714C8.6625 1.13333 7.5 0 7.5 0C7.5 0 6.3375 1.13333 6.3375 2.13714C6.3375 2.46993 6.45998 2.78908 6.67799 3.02439C6.896 3.25971 7.19169 3.3919 7.5 3.3919Z" fill="white"/>
</svg>
