<svg width="15" height="13" viewBox="0 0 15 13" fill="none" xmlns="http://www.w3.org/2000/svg">
<path d="M14.3182 0H0.681818C0.500989 0 0.327566 0.076091 0.1997 0.211534C0.0718342 0.346977 0 0.530677 0 0.722222V12.2778C0 12.4693 0.0718342 12.653 0.1997 12.7885C0.327566 12.9239 0.500989 13 0.681818 13H14.3182C14.499 13 14.6724 12.9239 14.8003 12.7885C14.9282 12.653 15 12.4693 15 12.2778V0.722222C15 0.530677 14.9282 0.346977 14.8003 0.211534C14.6724 0.076091 14.499 0 14.3182 0ZM13.6364 11.5556H1.36364V4.67783L7.24636 7.17094C7.40929 7.23932 7.59071 7.23932 7.75364 7.17094L13.6364 4.67783V11.5556ZM13.6364 3.12217L7.5 5.72217L1.36364 3.12217V1.44444H13.6364V3.12217Z" fill="white"/>
</svg>
