<svg width="69" height="69" viewBox="0 0 69 69" fill="none" xmlns="http://www.w3.org/2000/svg">
<path d="M28.75 51.75H31.625V40.25C32.8229 40.25 33.8416 39.8312 34.6811 38.9936C35.5206 38.156 35.9394 37.1373 35.9375 35.9375V27.3125H33.0625V35.9375H31.625V27.3125H28.75V35.9375H27.3125V27.3125H24.4375V35.9375C24.4375 37.1354 24.8572 38.1541 25.6967 38.9936C26.5362 39.8331 27.554 40.2519 28.75 40.25V51.75ZM40.25 51.75H43.125V27.3125C41.5438 27.3125 40.1906 27.876 39.0655 29.003C37.9404 30.13 37.3769 31.4832 37.375 33.0625V41.6875H40.25V51.75ZM11.5 60.375V25.875L34.5 8.625L57.5 25.875V60.375H11.5Z" fill="#FFB600"/>
</svg>
