<svg width="21" height="21" viewBox="0 0 21 21" fill="none" xmlns="http://www.w3.org/2000/svg">
<path d="M18.1126 2.88728C17.4953 2.27334 16.6601 1.92871 15.7895 1.92871C14.9188 1.92871 14.0836 2.27334 13.4663 2.88728L4.41009 11.9567L2.10009 16.7079C1.98136 16.9581 1.92738 17.2342 1.9431 17.5107C1.95881 17.7872 2.04373 18.0553 2.19005 18.2905C2.33637 18.5257 2.53941 18.7203 2.78054 18.8566C3.02166 18.9928 3.29315 19.0664 3.57009 19.0704C3.82069 19.0703 4.06784 19.0119 4.29196 18.8998L9.04321 16.5898L16.9182 8.71478L18.0076 7.63853L18.0863 7.55978C18.7086 6.94319 19.0608 6.10494 19.0657 5.22896C19.0706 4.35298 18.7279 3.51082 18.1126 2.88728ZM16.9445 4.0554C17.0972 4.2078 17.2185 4.38885 17.3012 4.58817C17.3839 4.78749 17.4265 5.00117 17.4265 5.21697C17.4265 5.43276 17.3839 5.64644 17.3012 5.84576C17.2185 6.04508 17.0972 6.22613 16.9445 6.37853L14.6213 4.0554C14.9197 3.75225 15.3248 3.57794 15.7501 3.56978C15.972 3.56352 16.1927 3.60347 16.3983 3.68707C16.6039 3.77067 16.7899 3.8961 16.9445 4.0554ZM3.58321 17.4167L5.63071 13.1248L7.87509 15.3692L3.58321 17.4167ZM9.04321 14.2667L6.73321 11.9567L13.4663 5.24978L15.7501 7.53353L9.04321 14.2667Z" fill="black"/>
</svg>
