<svg width="22" height="22" viewBox="0 0 22 22" fill="none" xmlns="http://www.w3.org/2000/svg">
<path d="M11 7.33301V10.9997L13.2917 13.2913" stroke="black" stroke-width="1.5" stroke-linecap="round" stroke-linejoin="round"/>
<path d="M3.97692 6.29854L3.28942 6.30129C3.29015 6.48251 3.3624 6.65613 3.49046 6.78436C3.61852 6.91259 3.79203 6.98507 3.97326 6.98604L3.97692 6.29854ZM6.30709 6.99704C6.39738 6.99746 6.48686 6.98009 6.57043 6.94593C6.654 6.91177 6.73003 6.86149 6.79417 6.79794C6.8583 6.7344 6.9093 6.65885 6.94424 6.5756C6.97918 6.49235 6.99738 6.40303 6.9978 6.31275C6.99822 6.22246 6.98086 6.13298 6.94669 6.04941C6.91253 5.96584 6.86225 5.88981 6.7987 5.82567C6.73516 5.76153 6.65961 5.71054 6.57636 5.6756C6.49311 5.64066 6.40379 5.62246 6.31351 5.62204L6.30709 6.99704ZM4.65251 3.96104C4.65203 3.87076 4.63377 3.78145 4.59877 3.69822C4.56378 3.615 4.51273 3.53948 4.44855 3.47598C4.38437 3.41248 4.30831 3.36224 4.22471 3.32814C4.14112 3.29403 4.05163 3.27672 3.96134 3.27721C3.87106 3.27769 3.78175 3.29595 3.69853 3.33094C3.6153 3.36594 3.53978 3.41698 3.47628 3.48116C3.41278 3.54534 3.36254 3.6214 3.32844 3.705C3.29433 3.78859 3.27703 3.87809 3.27751 3.96837L4.65251 3.96104ZM3.50851 9.88637C3.52168 9.79652 3.51692 9.70495 3.49451 9.61695C3.47209 9.52894 3.43246 9.44625 3.37791 9.37365C3.32336 9.30105 3.25496 9.23998 3.17667 9.19396C3.09838 9.14794 3.01175 9.11789 2.92178 9.10553C2.83181 9.09318 2.74029 9.09878 2.6525 9.122C2.5647 9.14522 2.48238 9.1856 2.41028 9.24081C2.33818 9.29603 2.27773 9.36498 2.23243 9.44369C2.18713 9.52239 2.15787 9.60929 2.14634 9.69937L3.50851 9.88637ZM17.2906 4.70996C13.7889 1.20829 8.13034 1.17162 4.65159 4.65129L5.62326 5.62296C8.55659 2.69054 13.3443 2.70796 16.3189 5.68162L17.2906 4.70996ZM4.71026 17.2903C8.21192 20.792 13.8705 20.8286 17.3493 17.349L16.3776 16.3773C13.4443 19.3097 8.65651 19.2923 5.68192 16.3186L4.71026 17.2903ZM17.3493 17.349C20.828 13.8702 20.7923 8.21162 17.2906 4.70996L16.3189 5.68162C19.2926 8.65621 19.31 13.444 16.3776 16.3773L17.3493 17.349ZM4.65159 4.65129L3.49017 5.81179L4.46276 6.78346L5.62326 5.62296L4.65159 4.65129ZM3.97326 6.98604L6.30709 6.99704L6.31351 5.62204L3.98059 5.61104L3.97326 6.98604ZM4.66442 6.29487L4.65251 3.96104L3.27751 3.96837L3.28942 6.30129L4.66442 6.29487ZM2.14542 9.69846C1.95709 11.0758 2.09059 12.4781 2.53545 13.7952C2.98031 15.1123 3.72441 16.3083 4.70934 17.2894L5.68101 16.3177C4.84613 15.4866 4.21535 14.4731 3.83824 13.357C3.46112 12.241 3.34794 11.0527 3.50759 9.88546L2.14542 9.69846Z" fill="black"/>
</svg>
