<svg width="21" height="21" viewBox="0 0 21 21" fill="none" xmlns="http://www.w3.org/2000/svg">
<g clip-path="url(#clip0_317_878)">
<path d="M4.5 10.5V6.55497C4.51172 5.77952 4.67633 5.014 4.98441 4.30227C5.29249 3.59055 5.73797 2.94661 6.29535 2.40735C6.85272 1.86809 7.51102 1.44412 8.23253 1.15971C8.95404 0.875308 9.72458 0.736069 10.5 0.749971C11.2754 0.736069 12.046 0.875308 12.7675 1.15971C13.489 1.44412 14.1473 1.86809 14.7047 2.40735C15.262 2.94661 15.7075 3.59055 16.0156 4.30227C16.3237 5.014 16.4883 5.77952 16.5 6.55497V10.5M13.5 18.375C14.2956 18.375 15.0587 18.0589 15.6213 17.4963C16.1839 16.9337 16.5 16.1706 16.5 15.375V12M13.5 18.375C13.5 18.8722 13.3025 19.3492 12.9508 19.7008C12.5992 20.0524 12.1223 20.25 11.625 20.25H9.375C8.87772 20.25 8.40081 20.0524 8.04917 19.7008C7.69754 19.3492 7.5 18.8722 7.5 18.375C7.5 17.8777 7.69754 17.4008 8.04917 17.0491C8.40081 16.6975 8.87772 16.5 9.375 16.5H11.625C12.1223 16.5 12.5992 16.6975 12.9508 17.0491C13.3025 17.4008 13.5 17.8777 13.5 18.375ZM2.25 8.24997H3.75C3.94891 8.24997 4.13968 8.32899 4.28033 8.46964C4.42098 8.61029 4.5 8.80106 4.5 8.99997V13.5C4.5 13.6989 4.42098 13.8896 4.28033 14.0303C4.13968 14.171 3.94891 14.25 3.75 14.25H2.25C1.85218 14.25 1.47064 14.0919 1.18934 13.8106C0.908035 13.5293 0.75 13.1478 0.75 12.75V9.74997C0.75 9.35215 0.908035 8.97061 1.18934 8.68931C1.47064 8.40801 1.85218 8.24997 2.25 8.24997ZM18.75 14.25H17.25C17.0511 14.25 16.8603 14.171 16.7197 14.0303C16.579 13.8896 16.5 13.6989 16.5 13.5V8.99997C16.5 8.80106 16.579 8.61029 16.7197 8.46964C16.8603 8.32899 17.0511 8.24997 17.25 8.24997H18.75C19.1478 8.24997 19.5294 8.40801 19.8107 8.68931C20.092 8.97061 20.25 9.35215 20.25 9.74997V12.75C20.25 13.1478 20.092 13.5293 19.8107 13.8106C19.5294 14.0919 19.1478 14.25 18.75 14.25Z" stroke="black" stroke-linecap="round" stroke-linejoin="round"/>
</g>
<defs>
<clipPath id="clip0_317_878">
<rect width="21" height="21" fill="white"/>
</clipPath>
</defs>
</svg>
