<svg width="170" height="151" viewBox="0 0 170 151" fill="none" xmlns="http://www.w3.org/2000/svg">
<path d="M112.472 9.75458C112.472 9.75458 86.7477 1.63078 61.4959 14.5654C36.2441 27.5001 23.5009 53.1792 12.5597 73.7484C1.61849 94.3176 7.91529 115.24 27.1797 124.786C46.4441 134.333 59.5647 120.256 86.6049 119.577C113.645 118.897 120.935 122.31 143.371 108.753C165.808 95.1964 169.867 63.1512 152.167 39.4261C134.467 15.701 112.472 9.75458 112.472 9.75458Z" fill="#92E3A9"/>
<path opacity="0.7" d="M112.472 9.75458C112.472 9.75458 86.7477 1.63078 61.4959 14.5654C36.2441 27.5001 23.5009 53.1792 12.5597 73.7484C1.61849 94.3176 7.91529 115.24 27.1797 124.786C46.4441 134.333 59.5647 120.256 86.6049 119.577C113.645 118.897 120.935 122.31 143.371 108.753C165.808 95.1964 169.867 63.1512 152.167 39.4261C134.467 15.701 112.472 9.75458 112.472 9.75458Z" fill="white"/>
<path d="M157.577 64.4736C157.577 64.4736 157.577 62.7764 154.904 60.4026C152.232 58.0289 150.512 56.6699 150.512 56.6699C150.512 56.6699 149.175 60.5718 151.657 62.9485C153.483 64.6186 155.463 66.1501 157.577 67.5268V64.4736Z" fill="#92E3A9"/>
<path d="M153.697 75.0674C153.697 75.0674 153.697 73.3701 151.024 70.9964C148.352 68.6227 146.632 67.2637 146.632 67.2637C146.632 67.2637 145.295 71.1655 147.777 73.5392C149.603 75.2109 151.583 76.7434 153.697 78.1206V75.0674Z" fill="#92E3A9"/>
<path d="M157.42 67.3636C157.42 67.3636 157.621 65.6754 160.562 63.5644C163.503 61.4535 165.373 60.2666 165.373 60.2666C165.373 60.2666 166.24 64.2711 163.489 66.4002C161.475 67.8906 159.323 69.2282 157.057 70.3987L157.42 67.3636Z" fill="#92E3A9"/>
<path d="M152.721 79.873C152.721 79.873 153.122 78.218 156.298 76.406C159.473 74.594 161.472 73.5732 161.472 73.5732C161.472 73.5732 161.857 77.6382 158.871 79.4985C156.691 80.7924 154.393 81.9218 152 82.8748L152.721 79.873Z" fill="#92E3A9"/>
<path d="M153.602 93.5136C153.602 93.5136 153.602 91.8164 156.277 89.4427C158.953 87.069 160.67 85.71 160.67 85.71C160.67 85.71 162.006 89.6118 159.524 91.9855C157.697 93.6568 155.716 95.1892 153.602 96.5669V93.5136Z" fill="#92E3A9"/>
<path d="M153.558 96.8416C153.558 96.8416 153.83 95.1624 151.565 92.4746C149.301 89.7868 147.825 88.2285 147.825 88.2285C147.825 88.2285 145.881 91.919 147.958 94.5705C149.497 96.4556 151.213 98.2225 153.085 99.8525L153.558 96.8416Z" fill="#92E3A9"/>
<path d="M150.923 106.711C150.923 106.711 150.923 105.014 153.595 102.64C156.268 100.266 157.988 98.9072 157.988 98.9072C157.988 98.9072 159.324 102.809 156.842 105.183C155.016 106.853 153.036 108.386 150.923 109.764V106.711Z" fill="#92E3A9"/>
<path d="M152.708 115.666C152.708 115.666 152.225 114.023 154.132 111.136C156.04 108.248 157.318 106.536 157.318 106.536C157.318 106.536 159.725 110.009 157.998 112.878C156.708 114.905 155.23 116.832 153.578 118.64L152.708 115.666Z" fill="#92E3A9"/>
<path d="M157.821 64.0391C157.682 65.8054 157.435 67.5637 157.08 69.3059C156.022 74.1561 153.38 77.2848 152.32 81.6668C151.259 86.0488 154.298 91.6902 153.486 97.3164C152.673 102.943 150.208 106.074 150.912 109.828C151.616 113.582 155.315 123.75 155.315 123.75" stroke="#263238" stroke-linecap="round" stroke-linejoin="round"/>
<path d="M157.383 68.4903L160.266 66.5273" stroke="#263238" stroke-linecap="round" stroke-linejoin="round"/>
<path d="M157.519 66.2279L156.312 64.3223" stroke="#263238" stroke-linecap="round" stroke-linejoin="round"/>
<path d="M152.493 81.4643C152.493 81.4643 154.904 79.8576 157.382 78.251" stroke="#263238" stroke-linecap="round" stroke-linejoin="round"/>
<path d="M153.697 78.1214C153.697 78.1214 151.687 74.6212 149.409 72.2988" stroke="#263238" stroke-linecap="round" stroke-linejoin="round"/>
<path d="M153.697 95.9265C155.075 93.672 156.813 91.6069 158.858 89.7959" stroke="#263238" stroke-linecap="round" stroke-linejoin="round"/>
<path d="M153.228 98.3063C152.498 96.7767 151.626 95.3038 150.62 93.9031C149.212 92.0579 149.012 91.8193 149.012 91.8193" stroke="#263238" stroke-linecap="round" stroke-linejoin="round"/>
<path d="M150.923 109.828C151.533 108.48 152.26 107.175 153.095 105.926C153.931 104.768 154.872 103.673 155.911 102.652" stroke="#263238" stroke-linecap="round" stroke-linejoin="round"/>
<path d="M153.578 118.61C153.578 118.61 153.296 116.577 154.303 114.853C155.309 113.129 156.445 110.864 156.914 109.973" stroke="#263238" stroke-linecap="round" stroke-linejoin="round"/>
<path d="M140.08 87.1355C140.08 87.1355 139.873 86.0694 141.26 84.3238C142.647 82.5783 143.559 81.5605 143.559 81.5605C143.559 81.5605 144.874 83.8769 143.606 85.6073C142.666 86.8305 141.612 87.9811 140.454 89.0471L140.08 87.1355Z" fill="#92E3A9"/>
<path d="M143.799 93.402C143.799 93.402 143.592 92.3389 144.976 90.5934C146.359 88.8478 147.274 87.8301 147.274 87.8301C147.274 87.8301 148.59 90.1464 147.325 91.8739C146.384 93.0979 145.328 94.2496 144.17 95.3167L143.799 93.402Z" fill="#92E3A9"/>
<path d="M140.529 88.9294C140.529 88.9294 140.189 87.8905 138.094 86.8517C136 85.8128 134.674 85.248 134.674 85.248C134.674 85.248 134.62 87.8422 136.605 88.9113C138.051 89.6512 139.563 90.2826 141.127 90.7988L140.529 88.9294Z" fill="#92E3A9"/>
<path d="M144.996 96.3373C144.996 96.3373 144.544 95.3377 142.331 94.4982C140.117 93.6586 138.74 93.2207 138.74 93.2207C138.74 93.2207 138.992 95.8058 141.093 96.6846C142.618 97.286 144.196 97.7729 145.812 98.1403L144.996 96.3373Z" fill="#92E3A9"/>
<path d="M146.111 104.963C146.111 104.963 145.904 103.897 143.939 102.668C141.973 101.439 140.726 100.75 140.726 100.75C140.726 100.75 140.365 103.326 142.211 104.576C143.562 105.447 144.992 106.216 146.485 106.878L146.111 104.963Z" fill="#92E3A9"/>
<path d="M146.54 107.043C146.54 107.043 146.166 106.016 147.258 104.114C148.349 102.211 149.09 101.094 149.09 101.094C149.09 101.094 150.763 103.208 149.77 105.092C149.036 106.422 148.178 107.695 147.203 108.897L146.54 107.043Z" fill="#92E3A9"/>
<path d="M149.903 115.623C149.903 115.623 150.042 114.551 151.925 113.223C153.809 111.894 155.006 111.136 155.006 111.136C155.006 111.136 155.533 113.688 153.768 115.029C152.478 115.967 151.102 116.809 149.654 117.544L149.903 115.623Z" fill="#92E3A9"/>
<path d="M149.406 112.977C149.406 112.977 149.199 111.914 147.23 110.682C145.262 109.45 144.021 108.768 144.021 108.768C144.021 108.768 143.66 111.341 145.506 112.591C146.856 113.463 148.285 114.233 149.78 114.892L149.406 112.977Z" fill="#92E3A9"/>
<path d="M149.379 118.761C149.379 118.761 149.481 117.683 147.93 116.043C146.38 114.403 145.37 113.464 145.37 113.464C145.37 113.464 144.289 115.88 145.71 117.499C146.768 118.646 147.931 119.712 149.188 120.688L149.379 118.761Z" fill="#92E3A9"/>
<path d="M139.866 86.8848C140.167 87.979 140.534 89.0577 140.968 90.1162C142.226 93.0576 144.262 94.7639 145.463 97.4095C146.663 100.055 145.446 103.884 146.642 107.336C147.839 110.788 149.77 112.509 149.787 114.932C149.804 117.354 148.727 124.088 148.727 124.088" stroke="#263238" stroke-linecap="round" stroke-linejoin="round"/>
<path d="M140.682 89.633L138.635 88.6787" stroke="#263238" stroke-linecap="round" stroke-linejoin="round"/>
<path d="M140.321 88.2286L140.845 86.918" stroke="#263238" stroke-linecap="round" stroke-linejoin="round"/>
<path d="M145.336 97.2981C145.336 97.2981 143.636 96.522 141.875 95.7549" stroke="#263238" stroke-linecap="round" stroke-linejoin="round"/>
<path d="M144.16 95.3168C144.662 93.9064 145.325 92.5453 146.139 91.2549" stroke="#263238" stroke-linecap="round" stroke-linejoin="round"/>
<path d="M146.346 106.485C145.208 105.203 143.865 104.075 142.361 103.136" stroke="#263238" stroke-linecap="round" stroke-linejoin="round"/>
<path d="M146.931 107.932C147.203 106.9 147.572 105.89 148.032 104.912C148.688 103.619 148.787 103.45 148.787 103.45" stroke="#263238" stroke-linecap="round" stroke-linejoin="round"/>
<path d="M149.695 116.771C149.695 116.771 151.055 115.294 151.895 114.741C152.404 114.408 152.882 114.038 153.323 113.636" stroke="#263238" stroke-linecap="round" stroke-linejoin="round"/>
<path d="M149.787 114.932C149.239 114.146 148.624 113.397 147.948 112.694C147.283 112.049 146.558 111.454 145.782 110.915" stroke="#263238" stroke-linecap="round" stroke-linejoin="round"/>
<path d="M149.195 120.697C149.125 119.876 148.81 119.087 148.281 118.411C147.441 117.424 146.451 116.116 146.047 115.603" stroke="#263238" stroke-linecap="round" stroke-linejoin="round"/>
<path d="M157.297 138.129H146.72C146.499 138.129 146.287 138.051 146.131 137.912C145.975 137.773 145.887 137.585 145.887 137.389L143.266 122.914H160.755L158.13 137.389C158.13 137.585 158.043 137.773 157.886 137.912C157.73 138.051 157.518 138.129 157.297 138.129Z" fill="#263238" stroke="#263238" stroke-linecap="round" stroke-linejoin="round"/>
<path d="M160.602 124.94H143.262C142.902 124.94 142.556 124.813 142.301 124.587C142.046 124.36 141.902 124.053 141.902 123.732C141.902 123.412 142.046 123.105 142.301 122.878C142.556 122.652 142.902 122.524 143.262 122.524H160.602C160.963 122.524 161.309 122.652 161.564 122.878C161.819 123.105 161.962 123.412 161.962 123.732C161.962 124.053 161.819 124.36 161.564 124.587C161.309 124.813 160.963 124.94 160.602 124.94Z" fill="#263238" stroke="#263238" stroke-linecap="round" stroke-linejoin="round"/>
<path d="M143.952 124.994H156.542" stroke="white" stroke-linecap="round" stroke-linejoin="round"/>
<path d="M157.726 124.994H159.8" stroke="white" stroke-linecap="round" stroke-linejoin="round"/>
<path d="M86.8936 54.3805C86.8936 54.3805 86.0096 55.1657 86.098 55.9509C86.1864 56.7361 93.7004 70.7942 94.496 71.8149C95.2916 72.8357 97.59 73.1498 98.6542 72.6001C99.7184 72.0505 103.87 68.1245 103.87 68.1245L103.662 47.9932C103.662 47.9932 99.9802 57.3552 98.9194 58.8652C97.8586 60.3752 97.3248 61.1453 97.3248 61.1453C97.3248 61.1453 94.9448 55.1747 94.3192 53.9969C93.8813 53.2389 93.2059 52.6096 92.3744 52.1849L86.8936 54.3805Z" fill="#BFBFBF" stroke="#263238" stroke-linecap="round" stroke-linejoin="round"/>
<path d="M105.495 132.88C105.495 132.88 100.188 134.662 98.1816 135.296C96.1756 135.93 96.2947 137.497 96.5293 137.812L96.7672 138.114H115.76C116.041 137.219 115.999 136.268 115.641 135.396C115.052 133.831 105.495 132.88 105.495 132.88Z" fill="white" stroke="#263238" stroke-linecap="round" stroke-linejoin="round"/>
<path d="M115.94 137.289H96.4071C96.3956 137.471 96.4378 137.652 96.5295 137.815L96.7675 138.117H115.76C115.858 137.848 115.918 137.57 115.94 137.289Z" fill="white" stroke="#263238" stroke-linecap="round" stroke-linejoin="round"/>
<path d="M101.484 75.3608C101.484 75.3608 100.188 86.7825 100.188 92.6503C100.188 98.5182 102.548 110.151 103.248 113.715C103.949 117.278 106.308 128.489 106.308 129.325C106.308 130.162 106.308 131.213 105.601 131.632C105.363 131.763 105.171 131.949 105.046 132.171C104.921 132.393 104.868 132.642 104.894 132.889V133.517C104.894 133.517 110.555 136.033 113.034 136.138C114.132 136.216 115.236 136.216 116.335 136.138C116.335 136.138 116.1 131.421 116.1 129.431C116.1 127.441 116.219 113.189 116.335 110.988C116.451 108.786 116.927 92.9644 117.399 88.5643C117.872 84.1641 119.286 76.6202 119.286 76.6202L101.946 74.1045L101.484 75.3608Z" fill="#92E3A9" stroke="#263238" stroke-linecap="round" stroke-linejoin="round"/>
<path d="M118.12 132.88C118.12 132.88 112.809 134.662 110.807 135.296C108.804 135.93 108.916 137.497 109.154 137.812L109.389 138.114H128.381C128.663 137.219 128.622 136.269 128.266 135.396C127.674 133.831 118.12 132.88 118.12 132.88Z" fill="white" stroke="#263238" stroke-linecap="round" stroke-linejoin="round"/>
<path d="M128.548 137.289H109.029C109.019 137.471 109.063 137.652 109.154 137.815L109.389 138.117H128.381C128.477 137.848 128.533 137.57 128.548 137.289Z" fill="white" stroke="#263238" stroke-linecap="round" stroke-linejoin="round"/>
<path d="M111.629 76.7224C111.629 76.7224 111.748 92.7556 111.629 97.4698C111.51 102.184 114.689 114.131 115.641 116.961C116.593 119.791 118.235 130.792 118.361 131.318C118.487 131.843 116.593 132.366 116.593 133.517C116.593 134.667 121.782 134.67 121.782 134.67C121.782 134.67 126.62 135.927 127.092 135.927C127.577 135.979 128.052 136.086 128.507 136.244C128.981 134.776 129.259 133.263 129.333 131.738C129.353 129.999 129.074 128.268 128.507 126.604C128.507 126.604 129.098 117.384 128.626 111.936C128.153 106.488 126.854 99.8858 126.854 97.8926C126.854 95.8994 128.153 92.2362 128.745 88.1471C129.336 84.058 129.568 78.0875 129.568 76.8311C129.568 75.5748 111.888 75.2607 111.888 75.2607L111.629 76.7224Z" fill="#92E3A9" stroke="#263238" stroke-linecap="round" stroke-linejoin="round"/>
<path d="M116.114 44.1367C116.114 44.1367 107.383 45.4987 105.849 45.7071C104.316 45.9155 103.36 48.0174 103.02 49.7932C102.68 51.5689 100.661 74.7323 101.484 75.3605C102.306 75.9887 124.488 78.0785 126.967 78.1902C129.445 78.302 130.271 78.4016 130.506 76.8282C130.741 75.2548 134.345 52.7649 135.025 50.7143C136.201 47.1537 125.552 45.2783 123.074 44.7649C120.595 44.2515 116.114 44.1367 116.114 44.1367Z" fill="#BFBFBF" stroke="#263238" stroke-linecap="round" stroke-linejoin="round"/>
<path d="M127.84 45.8582C127.84 45.8582 123.539 57.3342 122.832 59.0164C122.125 60.6985 122.121 61.1092 122.121 61.1092L107.613 58.3912C107.613 58.3912 109.147 51.8952 109.735 50.1134C110.323 48.3316 111.731 44.8193 111.731 44.8193L110.68 44.9794C110.68 44.9794 107.26 54.7249 106.434 57.3433C105.607 59.9616 101.721 68.3421 101.483 70.9695C101.245 73.5969 100.069 83.3334 99.7153 89.8324C99.3617 96.3315 99.8343 103.139 99.8343 103.139C99.8343 103.139 113.635 105.443 117.766 105.34C121.897 105.237 124.488 105.234 124.488 105.234C124.488 105.234 124.148 92.7649 124.607 88.7845C125.066 84.8041 126.613 77.4655 126.613 77.4655L130.387 77.2572L130.506 76.8374L125.905 76.5354C125.905 76.5354 123.42 62.0545 123.42 61.529V60.7015L128.625 46.1481L127.84 45.8582Z" fill="#263238" stroke="#263238" stroke-linecap="round" stroke-linejoin="round"/>
<path d="M133.355 86.1689C133.355 86.1689 130.635 89.6268 130.435 90.2037C130.234 90.7805 130.867 93.1844 130.867 93.9515C130.867 94.7186 131.948 94.7216 131.948 94.7216C131.948 94.7216 131.407 95.9689 132.057 96.4521C132.706 96.9353 135.518 96.8356 136.058 95.9688C136.599 95.1021 138.778 92.1274 138.778 90.6838C138.717 89.4872 138.536 88.2977 138.238 87.1293L133.355 86.1689Z" fill="#828282" stroke="#263238" stroke-linecap="round" stroke-linejoin="round"/>
<path d="M131.947 94.7214C131.947 94.7214 132.814 94.0479 132.814 93.1842C132.814 92.3205 133.678 90.877 133.678 90.877" stroke="#263238" stroke-linecap="round" stroke-linejoin="round"/>
<path d="M133.572 83.9551C133.464 84.242 132.705 86.2624 133.355 86.8392C134.004 87.416 138.006 87.9898 138.438 87.6063C138.87 87.2227 139.628 85.0121 139.628 85.0121L133.572 83.9551Z" fill="#BFBFBF" stroke="#263238" stroke-linecap="round" stroke-linejoin="round"/>
<path d="M128.918 61.6653L133.246 70.5048C133.246 70.5048 131.839 83.0952 132.597 84.1522C133.355 85.2092 139.523 85.6894 140.604 85.0159C141.685 84.3425 142.443 81.9416 142.875 77.6169C143.307 73.2923 140.927 61.1851 140.277 59.1647C139.628 57.1443 135.32 49.0749 134.327 48.4045C133.335 47.734 131.516 47.9213 130.975 48.1025" fill="#BFBFBF"/>
<path d="M128.918 61.6653L133.246 70.5048C133.246 70.5048 131.839 83.0952 132.597 84.1522C133.355 85.2092 139.523 85.6894 140.604 85.0159C141.685 84.3425 142.443 81.9416 142.875 77.6169C143.307 73.2923 140.927 61.1851 140.277 59.1647C139.628 57.1443 135.32 49.0749 134.327 48.4045C133.335 47.734 131.516 47.9213 130.975 48.1025" stroke="#263238" stroke-linecap="round" stroke-linejoin="round"/>
<path d="M90.7289 50.1311C90.7289 50.1311 89.7531 46.6732 88.8895 45.3263C88.0259 43.9794 82.2901 42.1553 81.6407 42.1553C80.9913 42.1553 81.2089 43.4056 81.2089 44.5713C81.2089 45.737 81.4231 47.7423 82.8307 49.0862C84.2383 50.4301 86.7237 51.3935 86.7237 51.3935L87.4819 53.0273L91.3783 51.2002L90.7289 50.1311Z" fill="#828282" stroke="#263238" stroke-linecap="round" stroke-linejoin="round"/>
<path d="M88.4856 40.8725L88.6896 40.0692C88.7436 39.8575 88.749 39.6384 88.7054 39.4248C88.6617 39.2113 88.57 39.0078 88.4358 38.8264C88.3015 38.6451 88.1273 38.4898 87.9238 38.3696C87.7203 38.2495 87.4916 38.1671 87.2514 38.1274C86.8477 38.0601 86.4302 38.116 86.0667 38.2859C85.7032 38.4558 85.415 38.7299 85.2488 39.0636L76.9902 55.7158" stroke="#263238" stroke-linecap="round" stroke-linejoin="round"/>
<path d="M68.4219 54.5381C68.4664 55.5408 68.9462 56.4893 69.7607 57.1848C70.5752 57.8802 71.6611 58.2687 72.7909 58.2687C73.9207 58.2687 75.0066 57.8802 75.8211 57.1848C76.6355 56.4893 77.1153 55.5408 77.1599 54.5381H68.4219Z" fill="white" stroke="#263238" stroke-linecap="round" stroke-linejoin="round"/>
<path d="M69.8359 49.5579C69.88 49.2535 69.9633 48.9545 70.0841 48.667" stroke="#263238" stroke-linecap="round" stroke-linejoin="round"/>
<path d="M69.7002 53.8282C70.4448 53.505 70.8018 52.3756 70.4924 51.7685C70.2764 51.377 70.089 50.9735 69.9314 50.5605" stroke="#263238" stroke-linecap="round" stroke-linejoin="round"/>
<path d="M72.376 53.8279C73.124 53.5047 73.4776 52.3752 73.1716 51.7682C72.7942 51.0283 72.5324 50.533 72.4916 49.9834" stroke="#263238" stroke-linecap="round" stroke-linejoin="round"/>
<path d="M75.2012 49.3737C75.2508 49.133 75.3236 48.8966 75.4188 48.667" stroke="#263238" stroke-linecap="round" stroke-linejoin="round"/>
<path d="M75.0449 53.8279C75.7895 53.5047 76.1465 52.3753 75.8371 51.7682C75.6362 51.4 75.4591 51.0219 75.3067 50.6357" stroke="#263238" stroke-linecap="round" stroke-linejoin="round"/>
<path d="M82.5046 42.1558C82.5046 42.1558 79.6928 41.5789 79.4786 42.0591C79.2644 42.5393 79.261 43.5027 79.6928 43.7896C80.1246 44.0765 83.0486 44.1731 83.3716 44.0916C83.6946 44.01 84.4562 42.3279 82.5046 42.1558Z" fill="#828282" stroke="#263238" stroke-linecap="round" stroke-linejoin="round"/>
<path d="M83.2055 44.4447C83.2055 44.4447 80.3937 43.8679 80.1761 44.3511C79.9585 44.8343 79.9585 45.7917 80.3937 46.0786C80.8289 46.3655 83.7461 46.4651 84.0725 46.3806C84.3989 46.296 85.1571 44.6169 83.2055 44.4447Z" fill="#828282" stroke="#263238" stroke-linecap="round" stroke-linejoin="round"/>
<path d="M83.4701 46.4108C83.4701 46.4108 80.5869 46.2658 80.4645 46.7732C80.3421 47.2805 80.5257 48.2258 81.0085 48.4463C81.4913 48.6667 84.3881 48.3194 84.6873 48.1745C84.9865 48.0295 85.4251 46.2869 83.4701 46.4108Z" fill="#828282" stroke="#263238" stroke-linecap="round" stroke-linejoin="round"/>
<path d="M83.8302 48.4642C83.8302 48.4642 81.4502 48.3434 81.3516 48.7662C81.253 49.189 81.4026 49.9742 81.8004 50.1494C82.1982 50.3245 84.5918 50.0437 84.84 49.9259C85.0882 49.8081 85.4452 48.3585 83.8302 48.4642Z" fill="#828282" stroke="#263238" stroke-linecap="round" stroke-linejoin="round"/>
<path d="M89.862 48.0171C89.862 48.0171 89.1038 44.2693 88.672 43.5988C88.2402 42.9284 84.3438 41.0983 83.572 40.7147C82.8002 40.3312 81.532 39.851 81.2974 40.5214C81.1978 40.8298 81.2186 41.159 81.3562 41.4556C81.4938 41.7522 81.7403 41.9988 82.0556 42.1553C82.705 42.5418 84.3268 43.1156 84.3268 43.4055C84.3268 43.6955 85.1938 46.8634 87.0468 48.0171" fill="#828282"/>
<path d="M89.862 48.0171C89.862 48.0171 89.1038 44.2693 88.672 43.5988C88.2402 42.9284 84.3438 41.0983 83.572 40.7147C82.8002 40.3312 81.532 39.851 81.2974 40.5214C81.1978 40.8298 81.2186 41.159 81.3562 41.4556C81.4938 41.7522 81.7403 41.9988 82.0556 42.1553C82.705 42.5418 84.3268 43.1156 84.3268 43.4055C84.3268 43.6955 85.1938 46.8634 87.0468 48.0171" stroke="#263238" stroke-linecap="round" stroke-linejoin="round"/>
<path d="M91.1375 50.2188C91.1375 50.2188 85.7451 52.6529 86.0987 53.281C86.3519 53.809 86.53 54.3629 86.6291 54.93C86.6291 54.93 92.2867 52.6529 92.3751 52.1817C92.4635 51.7106 91.7563 50.5328 91.1375 50.2188Z" fill="#BFBFBF" stroke="#263238" stroke-linecap="round" stroke-linejoin="round"/>
<path d="M114.108 41.3069C114.108 41.3069 113.52 46.0211 113.52 48.0113C113.52 50.0015 114.24 53.4534 118.708 52.1004C123.176 50.7475 124.488 45.8128 124.488 44.8524C124.488 43.8921 124.961 36.8887 124.961 36.8887C124.961 36.8887 121.775 39.9298 119.181 40.6607C117.539 41.113 115.826 41.3312 114.108 41.3069Z" fill="white" stroke="#263238" stroke-linecap="round" stroke-linejoin="round"/>
<path d="M119.18 40.6763C117.537 41.1235 115.825 41.3366 114.107 41.3075C114.107 41.3075 114.009 42.1047 113.89 43.1799C115.042 43.7295 116.61 43.9016 117.81 43.959C120.979 44.1191 123.114 41.3739 124.804 39.2901C124.892 37.9522 124.96 36.9043 124.96 36.9043C124.96 36.9043 121.774 39.9454 119.18 40.6763Z" fill="#263238" stroke="#263238" stroke-linecap="round" stroke-linejoin="round"/>
<path d="M112.918 26.3974C112.918 26.3974 114.295 22.6435 115.835 21.2634C117.375 19.8832 126.494 19.6688 127.756 20.6594C129.017 21.6499 130.136 23.767 130.418 25.5095C130.7 27.252 128.456 31.2475 128.456 31.2475L112.918 26.3974Z" fill="#263238" stroke="#263238" stroke-linecap="round" stroke-linejoin="round"/>
<path d="M112.574 28.6262C112.574 28.6262 111.513 31.4559 111.629 33.4582C111.745 35.4604 112.221 37.4416 112.221 38.6979C112.221 39.9542 111.986 41.0052 113.281 41.9474C114.431 42.7809 116.382 43.0044 117.81 43.0769C121.152 43.243 123.345 40.1777 125.079 38.0697C125.079 38.0697 128.381 37.7677 128.619 36.0795C128.857 34.3914 128.316 33.6243 128.316 33.6243L128.456 31.2596C128.456 31.2596 117.412 26.4276 112.574 28.6262Z" fill="white" stroke="#263238" stroke-linecap="round" stroke-linejoin="round"/>
<path d="M124.845 31.2474C124.845 31.2474 124.134 34.1799 124.607 34.3913C125.079 34.6027 127.558 33.7601 127.667 32.8178C127.775 31.8756 126.48 31.1417 124.845 31.2474Z" fill="#263238" stroke="#263238" stroke-linecap="round" stroke-linejoin="round"/>
<path d="M112.068 29.0096C112.068 29.0096 117.531 29.7556 121.873 30.9998C126.215 32.244 128.316 33.6121 128.316 33.6121C128.316 33.6121 129.717 31.4981 129.578 30.3777C129.438 29.2573 123.42 27.2671 118.511 26.3973C113.601 25.5276 112.768 25.6484 112.35 26.1467C111.932 26.645 111.367 28.5113 112.068 29.0096Z" fill="#263238" stroke="#263238" stroke-linecap="round" stroke-linejoin="round"/>
<path d="M115.995 31.3506C115.995 31.3506 113.047 35.648 113.754 36.2762C114.461 36.9044 116.114 37.3241 116.586 37.1158" stroke="#263238" stroke-linecap="round" stroke-linejoin="round"/>
<path d="M113.754 38.1638C113.754 38.1638 119.874 39.7342 121.186 36.8018" stroke="#263238" stroke-linecap="round" stroke-linejoin="round"/>
<path d="M120.241 36.3818L122.013 37.01" stroke="#263238" stroke-linecap="round" stroke-linejoin="round"/>
<path d="M119.711 33.0265C120.004 33.0265 120.241 32.6749 120.241 32.2413C120.241 31.8076 120.004 31.4561 119.711 31.4561C119.418 31.4561 119.181 31.8076 119.181 32.2413C119.181 32.6749 119.418 33.0265 119.711 33.0265Z" fill="#263238"/>
<path d="M114.991 31.1934C114.991 31.6283 114.753 31.9816 114.461 31.9816C114.169 31.9816 113.931 31.6283 113.931 31.1934C113.931 30.7585 114.169 30.4082 114.461 30.4082C114.753 30.4082 114.991 30.7615 114.991 31.1934Z" fill="#263238"/>
<path d="M119.181 29.7793C119.181 29.7793 122.128 29.885 122.013 31.9809" stroke="#263238" stroke-linecap="round" stroke-linejoin="round"/>
<path d="M115.287 29.1513C115.287 29.1513 114.58 28.7315 113.047 30.1992" stroke="#263238" stroke-linecap="round" stroke-linejoin="round"/>
<path d="M72.8378 95.4717H69.499V138.132H72.8378V95.4717Z" fill="white" stroke="#263238" stroke-linecap="round" stroke-linejoin="round"/>
<path d="M75.1493 95.4717H71.8105V138.132H75.1493V95.4717Z" fill="#263238" stroke="#263238" stroke-linecap="round" stroke-linejoin="round"/>
<path d="M88.7597 95.4717H85.4209V138.132H88.7597V95.4717Z" fill="white" stroke="#263238" stroke-linecap="round" stroke-linejoin="round"/>
<path d="M91.0722 95.4717H87.7334V138.132H91.0722V95.4717Z" fill="#263238" stroke="#263238" stroke-linecap="round" stroke-linejoin="round"/>
<path d="M124.202 95.4717H120.863V138.132H124.202V95.4717Z" fill="white" stroke="#263238" stroke-linecap="round" stroke-linejoin="round"/>
<path d="M126.514 95.4717H123.175V138.132H126.514V95.4717Z" fill="#263238" stroke="#263238" stroke-linecap="round" stroke-linejoin="round"/>
<path d="M140.127 95.4717H136.788V138.132H140.127V95.4717Z" fill="white" stroke="#263238" stroke-linecap="round" stroke-linejoin="round"/>
<path d="M142.435 95.4717H139.097V138.132H142.435V95.4717Z" fill="#263238" stroke="#263238" stroke-linecap="round" stroke-linejoin="round"/>
<path d="M145.775 93.874H67.4424V97.5252H145.775V93.874Z" fill="white" stroke="#263238" stroke-linecap="round" stroke-linejoin="round"/>
<path d="M145.778 93.874H124.46V97.5252H145.778V93.874Z" fill="#263238" stroke="#263238" stroke-linecap="round" stroke-linejoin="round"/>
<path d="M147.06 92.9619H64.875V94.786H147.06V92.9619Z" fill="white" stroke="#263238" stroke-linecap="round" stroke-linejoin="round"/>
<path d="M147.06 92.9619H126.514V94.786H147.06V92.9619Z" fill="#263238" stroke="#263238" stroke-linecap="round" stroke-linejoin="round"/>
<path d="M100.609 76.0645H95.1352V74.4216H100.609C100.845 74.4216 101.072 74.5049 101.239 74.6533C101.406 74.8017 101.5 75.003 101.5 75.2128V75.2883C101.496 75.4955 101.4 75.6929 101.233 75.8381C101.067 75.9832 100.843 76.0645 100.609 76.0645Z" fill="white" stroke="#263238" stroke-linecap="round" stroke-linejoin="round"/>
<path d="M72.498 71.1543H98.3381V90.5065C98.3381 91.1472 98.0515 91.7617 97.5414 92.2148C97.0313 92.6679 96.3394 92.9225 95.6181 92.9225H75.218C74.4967 92.9225 73.8048 92.6679 73.2947 92.2148C72.7846 91.7617 72.498 91.1472 72.498 90.5065V71.1543Z" fill="white" stroke="#263238" stroke-linecap="round" stroke-linejoin="round"/>
<path d="M95.2468 71.1543V90.4098C95.2468 91.0746 94.9495 91.7122 94.4203 92.1823C93.891 92.6523 93.1732 92.9164 92.4248 92.9164H94.5192C95.2674 92.9156 95.9846 92.6513 96.5137 92.1814C97.0427 91.7115 97.3403 91.0744 97.3412 90.4098V71.1543H95.2468Z" fill="#263238" stroke="#263238" stroke-linecap="round" stroke-linejoin="round"/>
<path d="M76.4991 71.1543V90.4098C76.4991 91.793 78.7601 92.9164 80.3173 92.9164H78.2365C77.4878 92.9164 76.7696 92.6524 76.2399 92.1824C75.7101 91.7124 75.412 91.0749 75.4111 90.4098V71.1543H76.4991Z" fill="#263238" stroke="#263238" stroke-linecap="round" stroke-linejoin="round"/>
<path d="M98.1574 70.3535H72.671C72.0739 70.3535 71.5898 70.7835 71.5898 71.3139V71.3894C71.5898 71.9198 72.0739 72.3497 72.671 72.3497H98.1574C98.7546 72.3497 99.2386 71.9198 99.2386 71.3894V71.3139C99.2386 70.7835 98.7546 70.3535 98.1574 70.3535Z" fill="white" stroke="#263238" stroke-linecap="round" stroke-linejoin="round"/>
<path d="M69.2951 74.4219H74.7691V76.0648H69.2951C69.0588 76.0648 68.8323 75.9814 68.6652 75.833C68.4981 75.6846 68.4043 75.4834 68.4043 75.2735V75.198C68.4087 74.9908 68.5046 74.7934 68.6711 74.6483C68.8377 74.5031 69.0618 74.4218 69.2951 74.4219Z" fill="white" stroke="#263238" stroke-linecap="round" stroke-linejoin="round"/>
<path d="M72.4777 74.4219H77.9517V76.0648H72.4777C72.3607 76.0648 72.2449 76.0443 72.1368 76.0045C72.0287 75.9648 71.9305 75.9065 71.8478 75.833C71.7651 75.7595 71.6995 75.6723 71.6547 75.5763C71.61 75.4803 71.5869 75.3774 71.5869 75.2735V75.198C71.5914 74.9908 71.6872 74.7934 71.8538 74.6483C72.0203 74.5031 72.2444 74.4218 72.4777 74.4219Z" fill="white" stroke="#263238" stroke-linecap="round" stroke-linejoin="round"/>
<path d="M98.2563 71.6465H72.5693V71.9545H98.2563V71.6465Z" fill="#263238" stroke="#263238" stroke-linecap="round" stroke-linejoin="round"/>
<path d="M85.8122 63.6556C85.3192 63.121 84.7412 62.6741 84.7412 61.6291C84.7239 61.08 84.9304 60.5438 85.3226 60.1191" stroke="#263238" stroke-linecap="round" stroke-linejoin="round"/>
<path d="M84.7412 68.9163C84.7412 67.1043 86.4956 67.1043 86.4956 65.2742C86.4968 65.0563 86.4671 64.8392 86.4072 64.6279" stroke="#263238" stroke-linecap="round" stroke-linejoin="round"/>
<path d="M91.0621 62.1334C90.9334 61.8243 90.8711 61.4965 90.8785 61.167" stroke="#263238" stroke-linecap="round" stroke-linejoin="round"/>
<path d="M90.8779 68.9164C90.8779 66.9806 92.6289 66.9806 92.6289 65.0417C92.6289 63.9606 92.0849 63.4834 91.6089 62.9277" stroke="#263238" stroke-linecap="round" stroke-linejoin="round"/>
<path d="M77.7306 61.9308C77.6936 61.7545 77.6754 61.5755 77.6762 61.3962C77.6704 61.0876 77.728 60.7805 77.8462 60.4902" stroke="#263238" stroke-linecap="round" stroke-linejoin="round"/>
<path d="M77.6758 68.9161C77.6758 67.0377 79.4302 67.0377 79.4302 65.1592C79.4324 64.8136 79.3575 64.471 79.2098 64.1512C79.0622 63.8314 78.8447 63.5407 78.57 63.2959" stroke="#263238" stroke-linecap="round" stroke-linejoin="round"/>
<path d="M135.975 76.0645H130.501V74.4216H135.975C136.212 74.4216 136.438 74.5049 136.605 74.6533C136.772 74.8017 136.866 75.003 136.866 75.2128V75.2883C136.862 75.4955 136.766 75.6929 136.599 75.8381C136.433 75.9832 136.209 76.0645 135.975 76.0645Z" fill="white" stroke="#263238" stroke-linecap="round" stroke-linejoin="round"/>
<path d="M107.868 71.1543H133.708V90.5065C133.708 91.1472 133.422 91.7617 132.911 92.2148C132.401 92.6679 131.71 92.9225 130.988 92.9225H110.588C109.867 92.9225 109.175 92.6679 108.665 92.2148C108.155 91.7617 107.868 91.1472 107.868 90.5065V71.1543Z" fill="white" stroke="#263238" stroke-linecap="round" stroke-linejoin="round"/>
<path d="M130.617 71.1543V90.4098C130.617 91.0749 130.318 91.7124 129.789 92.1824C129.259 92.6524 128.541 92.9164 127.792 92.9164H129.88C130.628 92.9164 131.346 92.6523 131.875 92.1823C132.404 91.7122 132.702 91.0746 132.702 90.4098V71.1543H130.617Z" fill="#263238" stroke="#263238" stroke-linecap="round" stroke-linejoin="round"/>
<path d="M111.859 71.1543V90.4098C111.859 91.793 114.117 92.9164 115.678 92.9164H113.593C112.845 92.9156 112.128 92.6513 111.599 92.1814C111.07 91.7115 110.772 91.0744 110.771 90.4098V71.1543H111.859Z" fill="#263238" stroke="#263238" stroke-linecap="round" stroke-linejoin="round"/>
<path d="M133.525 70.3535H108.038C107.441 70.3535 106.957 70.7835 106.957 71.3139V71.3894C106.957 71.9198 107.441 72.3497 108.038 72.3497H133.525C134.122 72.3497 134.606 71.9198 134.606 71.3894V71.3139C134.606 70.7835 134.122 70.3535 133.525 70.3535Z" fill="white" stroke="#263238" stroke-linecap="round" stroke-linejoin="round"/>
<path d="M104.661 74.4219H110.135V76.0648H104.661C104.425 76.0648 104.198 75.9814 104.031 75.833C103.864 75.6846 103.771 75.4834 103.771 75.2735V75.198C103.775 74.9908 103.871 74.7934 104.037 74.6483C104.204 74.5031 104.428 74.4218 104.661 74.4219Z" fill="white" stroke="#263238" stroke-linecap="round" stroke-linejoin="round"/>
<path d="M107.844 74.4219H113.318V76.0648H107.844C107.608 76.0648 107.381 75.9814 107.214 75.833C107.047 75.6846 106.953 75.4834 106.953 75.2735V75.198C106.958 74.9908 107.053 74.7934 107.22 74.6483C107.387 74.5031 107.611 74.4218 107.844 74.4219Z" fill="white" stroke="#263238" stroke-linecap="round" stroke-linejoin="round"/>
<path d="M133.626 71.6465H107.939V71.9545H133.626V71.6465Z" fill="#263238" stroke="#263238" stroke-linecap="round" stroke-linejoin="round"/>
<path d="M120.843 66.4639H120.802C120.498 66.4639 120.251 66.6829 120.251 66.9531V68.3453C120.251 68.6155 120.498 68.8346 120.802 68.8346H120.843C121.147 68.8346 121.393 68.6155 121.393 68.3453V66.9531C121.393 66.6829 121.147 66.4639 120.843 66.4639Z" fill="#5C5C5C" stroke="#263238" stroke-linecap="round" stroke-linejoin="round"/>
<path d="M108.079 70.3662L109.181 69.6837C110.482 68.8742 112.032 68.4399 113.621 68.4395H128.105C130.11 68.4395 132.037 69.1302 133.48 70.3662H108.079Z" fill="#5C5C5C" stroke="#263238" stroke-linecap="round" stroke-linejoin="round"/>
<path d="M42.0449 53.2998C42.0449 53.2998 43.4559 55.447 44.0577 56.6973C44.6595 57.9476 45.4687 59.5603 44.6629 59.2009C43.8571 58.8415 43.0513 58.3976 42.3475 58.3976C41.6437 58.3976 41.4431 59.1133 41.1405 58.5757C40.8379 58.0382 42.0449 53.2998 42.0449 53.2998Z" fill="#92E3A9" stroke="#263238" stroke-linecap="round" stroke-linejoin="round"/>
<path d="M39.9329 130.376C39.9329 130.376 44.7643 132.88 46.5799 133.417C48.3955 133.955 49.5991 134.927 49.6977 135.921L49.7997 136.902L49.6977 137.618H27.6487C27.3135 136.879 27.1426 136.089 27.1455 135.293C27.1455 133.952 27.9513 133.683 28.3559 132.877C28.7605 132.07 38.4199 129.751 38.4199 129.751L39.9329 130.376Z" fill="#92E3A9" stroke="#263238" stroke-linecap="round" stroke-linejoin="round"/>
<path d="M27.3564 136.806C27.4298 137.08 27.5276 137.349 27.6488 137.609H49.6944L49.7964 136.893L49.6944 135.912C49.5958 134.927 48.3888 133.943 46.5766 133.408V136.806H27.3564Z" fill="white" stroke="#263238" stroke-linecap="round" stroke-linejoin="round"/>
<path d="M45.3661 87.7252C45.3661 87.7252 46.0733 88.7973 45.4681 89.2352C44.8629 89.6731 44.5603 89.8634 44.5603 89.8634C44.9791 90.6117 45.0863 91.4676 44.8629 92.2794C44.4617 93.5327 42.6495 98.8056 42.6495 101.309C42.6495 103.813 42.8501 109.983 41.7417 113.471C40.6333 116.959 38.4199 124.557 38.7225 126.257C39.0251 127.958 40.1335 128.761 40.3341 129.208C40.5051 129.761 40.5729 130.336 40.5347 130.908C40.5347 131.443 38.4199 133.859 34.8975 135.018C31.3751 136.178 28.4375 136.362 27.7575 136.181C27.0775 136 26.3499 134.931 26.4485 134.037C26.5471 133.143 26.8599 132.971 26.8599 132.343C26.8599 131.715 25.2483 125.638 25.4489 122.241C25.6495 118.843 28.8727 113.655 28.8727 111.151C28.8727 108.648 27.8527 104.269 27.0605 101.675C26.2683 99.0804 26.0405 98.5459 26.0405 98.2771C26.0405 98.0083 24.9321 95.9517 24.2283 94.2515C23.5245 92.5512 22.5283 90.9446 22.5283 89.1567C22.5417 87.9602 22.6428 86.7658 22.8309 85.581L23.7387 83.5244C23.7387 83.5244 44.5739 86.1156 44.8765 86.1156C45.1791 86.1156 45.3661 87.7252 45.3661 87.7252Z" fill="#263238" stroke="#263238" stroke-linecap="round" stroke-linejoin="round"/>
<path d="M47.1444 79.4953C47.1444 79.4953 52.4586 77.1367 53.3222 76.3062C54.1858 75.4757 53.3222 73.564 53.6078 73.564C53.8934 73.564 55.6172 72.9268 55.7634 72.356C55.9096 71.7853 55.6172 70.8249 55.9062 70.8249C56.1952 70.8249 59.4966 70.1243 60.7886 70.1877C62.0806 70.2511 65.5282 70.3779 66.6774 68.9132C67.8266 67.4485 68.68 66.1681 68.68 65.7845C68.68 65.401 68.34 65.2923 67.609 65.7302C66.878 66.1681 60.8532 66.2949 59.2008 66.2949C57.5484 66.2949 56.9058 66.1016 56.185 66.5969C55.4642 67.0922 52.7408 69.5323 52.3804 69.5323C52.02 69.5323 50.8742 69.4055 50.2282 70.0427C49.7168 69.7498 49.1108 69.615 48.5044 69.6592C47.6408 69.786 43.6934 71.7007 43.6934 71.7007L47.1444 79.4953Z" fill="#9E9E9E" stroke="#263238" stroke-linecap="round" stroke-linejoin="round"/>
<path d="M41.8437 57.1444C41.9319 57.2574 42.0136 57.3744 42.0885 57.4947C42.7422 58.5516 43.1709 59.7064 43.3533 60.9013C43.7579 63.3173 43.9585 67.7869 44.8629 70.9156C45.7673 74.0443 49.0925 78.7827 48.6029 82.7178C48.1133 86.6528 46.7907 87.9031 44.4753 87.9937C42.1599 88.0843 25.9521 85.0432 23.5381 84.418C21.1241 83.7929 20.6175 84.1492 20.8181 82.0926C21.0187 80.036 23.5381 72.6128 23.6367 69.9311C23.7353 67.2493 21.5219 61.3482 24.6567 57.0568C27.7915 52.7654 31.2017 49.9024 33.1125 50.2618C35.0233 50.6212 40.5347 54.0157 41.8437 57.1444Z" fill="white" stroke="#263238" stroke-linecap="round" stroke-linejoin="round"/>
<path d="M37.2136 30.8582C37.2136 30.8582 40.736 29.5174 43.5546 29.8737C46.3732 30.2301 49.1918 32.1991 49.797 33.54C50.4022 34.8809 50.9054 35.506 50.9054 36.3999C50.9054 37.2939 50.9054 37.5626 50.8034 37.8314L50.7048 38.1002C50.7048 38.1002 51.7248 40.2474 51.8098 40.9601C51.8948 41.6729 51.8098 42.0353 51.106 42.0353H50.4022C50.4022 42.0353 49.4944 47.3988 48.7022 48.0239C47.91 48.6491 45.4824 48.7397 45.4824 48.7397C45.4824 48.7397 43.167 49.6457 42.6638 52.4965C42.1606 55.3474 41.5554 58.6664 41.5554 58.6664C41.5554 58.6664 36.4214 50.3493 35.8196 48.5615C35.2178 46.7736 34.9118 45.5203 34.9118 45.5203C35.4871 44.6792 35.8361 43.7315 35.9318 42.751C36.0338 41.241 33.817 38.0096 34.4222 34.9715C35.0274 31.9334 37.2136 30.8582 37.2136 30.8582Z" fill="#999999" stroke="#263238" stroke-linecap="round" stroke-linejoin="round"/>
<path d="M48.6884 48.0181C49.314 47.5349 49.9974 44.2038 50.2762 42.7301C49.62 42.2861 46.5634 41.8573 45.3666 42.3858C44.1698 42.9143 42.8506 43.8173 42.6466 43.5485C42.4426 43.2797 41.4805 39.2601 42.1775 38.5474C42.8745 37.8347 44.5948 37.8286 44.1902 36.6659C43.7857 35.5032 42.0449 36.1344 41.9463 35.1559C41.8477 34.1774 42.9663 33.2775 41.6437 33.0117C40.7344 32.8692 39.7995 32.9304 38.9237 33.1899C38.6245 33.1899 38.0192 32.8305 38.0192 31.9366C38.0196 31.7007 37.9296 31.4717 37.764 31.2873C37.5984 31.1029 37.3671 30.974 37.108 30.9219C36.6626 31.1786 34.9218 32.3322 34.388 34.9777C33.7828 38.0159 35.9997 41.2352 35.8977 42.7573C35.8157 43.6585 35.5178 44.5337 35.0239 45.3243C35.4892 45.5061 36.0091 45.5465 36.5028 45.439C37.5228 45.1702 37.4073 44.3669 37.7099 43.7388C38.0125 43.1106 39.0188 42.9354 38.5156 41.7727C38.0124 40.61 39.3214 39.3567 39.9232 39.4473C40.525 39.5379 41.1336 40.4319 40.831 40.9573C40.5284 41.4828 39.811 44.0861 39.811 45.4269C39.811 46.7678 40.2123 47.9305 41.1201 48.3775C42.0279 48.8244 43.2859 49.2261 44.18 49.5855C44.5385 49.2413 44.9634 48.957 45.4347 48.7459C45.4347 48.7459 47.886 48.6523 48.6884 48.0181Z" fill="#263238" stroke="#263238" stroke-linecap="round" stroke-linejoin="round"/>
<path d="M48.9905 38.4562C48.9905 38.8035 48.8545 39.0844 48.6879 39.0844C48.5213 39.0844 48.3887 38.8035 48.3887 38.4562C48.3887 38.1089 48.5213 37.8311 48.6879 37.8311C48.8545 37.8311 48.9905 38.1119 48.9905 38.4562Z" fill="#263238"/>
<path d="M47.1788 36.8437C47.6918 36.5885 48.2316 36.3781 48.7904 36.2156C49.2936 36.128 50.0994 36.4844 49.9974 35.7686C49.8954 35.0529 48.8924 35.3217 47.682 35.5904C46.4716 35.8592 46.475 36.4904 47.1788 36.8437Z" fill="white" stroke="#263238" stroke-linecap="round" stroke-linejoin="round"/>
<path d="M45.8691 38.2783C46.1874 38.442 46.5311 38.5631 46.8891 38.6377" stroke="#263238" stroke-linecap="round" stroke-linejoin="round"/>
<path d="M46.8759 38.9941C46.7031 39.1032 46.5047 39.1759 46.2956 39.2068C46.0865 39.2377 45.8722 39.2259 45.6689 39.1723" stroke="#263238" stroke-linecap="round" stroke-linejoin="round"/>
<path d="M45.4717 34.965C45.4717 34.965 47.0323 33.8567 48.9839 34.1345" stroke="#263238" stroke-linecap="round" stroke-linejoin="round"/>
<path d="M46.3281 33.2196C46.3281 33.2196 48.2797 32.7364 49.1399 33.2196" stroke="#263238" stroke-linecap="round" stroke-linejoin="round"/>
<path d="M39.0249 32.4682C38.7223 32.4682 38.1205 32.1088 38.1205 31.2149C38.1205 30.3209 36.9101 29.7864 36.0057 30.4991C35.1013 31.2118 35.3019 31.6618 34.3941 31.84C33.4863 32.0182 31.5755 31.4836 31.2729 33.1839C30.9703 34.8842 31.3749 35.3281 30.9703 35.7751C30.5657 36.222 28.4543 37.0284 28.5563 38.5474C28.6583 40.0665 29.8653 40.0574 29.4607 40.9634C29.0561 41.8694 28.0531 43.02 29.5627 43.914C31.0723 44.8079 33.5883 42.9325 33.8909 43.6482C34.1935 44.3639 35.5909 44.9891 36.6109 44.7203C37.6309 44.4515 37.5187 43.6482 37.8213 43.02C38.1239 42.3919 39.1303 42.2167 38.6271 41.054C38.1239 39.8913 39.4295 38.638 40.0347 38.7286C40.6399 38.8192 41.2417 39.7131 40.9425 40.2386C40.6433 40.7641 39.9225 43.3673 39.9225 44.7082C39.9225 46.0491 40.3237 47.2118 41.2281 47.6588C42.1325 48.1057 43.5435 48.5648 44.4513 48.9121C45.3591 49.2594 48.1743 50.3405 49.0821 49.6248C49.9899 48.909 50.4897 47.2088 50.4897 45.6021C50.4897 43.9955 50.9929 42.4734 50.3911 42.0265C49.7893 41.5795 46.6511 41.1205 45.4577 41.6671C44.2643 42.2137 42.9417 43.0986 42.7377 42.8298C42.5337 42.561 41.8299 39.7011 42.5337 38.9853C43.2375 38.2696 44.9511 37.3757 44.5465 36.213C44.1419 35.0503 42.1325 35.4096 42.0305 34.4251C41.9285 33.4406 43.0505 32.5467 41.7279 32.2809C40.8234 32.1435 39.8945 32.2078 39.0249 32.4682Z" fill="white" stroke="#263238" stroke-linecap="round" stroke-linejoin="round"/>
<path d="M46.2744 42.9287C46.575 43.3285 47.0063 43.6369 47.5103 43.8124C48.0142 43.9879 48.5666 44.022 49.093 43.9102" stroke="#263238" stroke-linecap="round" stroke-linejoin="round"/>
<path d="M41.0991 39.9572C41.0991 39.9572 40.9427 38.7099 39.2257 38.5015C37.5087 38.2932 37.3523 40.7877 38.0561 41.9685C38.7599 43.1493 39.6949 42.5212 39.6949 42.5212" fill="#999999"/>
<path d="M41.0991 39.9572C41.0991 39.9572 40.9427 38.7099 39.2257 38.5015C37.5087 38.2932 37.3523 40.7877 38.0561 41.9685C38.7599 43.1493 39.6949 42.5212 39.6949 42.5212" stroke="#263238" stroke-linecap="round" stroke-linejoin="round"/>
<path d="M34.6972 44.626C34.6972 44.626 38.3215 52.1367 39.3279 54.1058C40.3343 56.0748 41.844 57.5033 41.844 59.4693C41.844 61.4353 42.7517 65.7297 42.7517 70.0212C42.7517 74.3126 43.9588 80.4824 43.5542 82.8954C43.1496 85.3084 42.1602 87.0993 42.1602 88.0838C42.1602 89.0683 42.2587 90.4998 41.7555 90.4998C41.2523 90.4998 34.007 90.0528 28.669 88.8901C23.331 87.7274 20.2132 87.1899 20.2132 86.4741C20.2132 85.7584 20.5158 84.4175 20.5158 84.0581C20.5158 83.6987 19.3088 82.986 19.914 80.573C20.5192 78.1601 21.121 70.6463 21.3216 65.2828C21.5222 59.9193 23.9396 55.1779 25.5512 53.0306C27.1628 50.8834 29.9712 49.3674 29.9712 49.3674C29.9712 49.3674 28.363 47.6671 30.2738 46.595C31.6889 45.8384 33.1678 45.1801 34.6972 44.626Z" fill="#92E3A9" stroke="#263238" stroke-linecap="round" stroke-linejoin="round"/>
<path d="M21.6104 84.0254C27.6478 86.3237 34.1398 87.532 40.7082 87.5799" stroke="#263238" stroke-linecap="round" stroke-linejoin="round"/>
<path d="M23.9055 84.835L23.4941 87.2902" stroke="#263238" stroke-linecap="round" stroke-linejoin="round"/>
<path d="M26.9451 85.9404L26.5303 87.9034" stroke="#263238" stroke-linecap="round" stroke-linejoin="round"/>
<path d="M30.2598 86.6738L29.9844 88.6368" stroke="#263238" stroke-linecap="round" stroke-linejoin="round"/>
<path d="M33.2996 87.166L33.1602 88.8844" stroke="#263238" stroke-linecap="round" stroke-linejoin="round"/>
<path d="M36.751 87.5342V89.3734" stroke="#263238" stroke-linecap="round" stroke-linejoin="round"/>
<path d="M39.3281 54.1058C38.3081 52.1367 34.6973 44.626 34.6973 44.626C33.1691 45.1803 31.6913 45.8386 30.2773 46.595C28.3665 47.6671 29.9747 49.3674 29.9747 49.3674C29.9747 49.3674 33.3985 53.837 34.5069 55.8936C35.6153 57.9502 35.3127 57.5033 36.3191 58.9347C37.3255 60.3662 37.8287 61.5259 38.1313 61.0789C38.4339 60.632 40.9499 58.4848 41.5517 58.6629C41.6231 58.6841 41.6979 58.7022 41.7795 58.7203C41.4565 57.1197 40.2019 55.8151 39.3281 54.1058Z" fill="#92E3A9" stroke="#263238" stroke-linecap="round" stroke-linejoin="round"/>
<path d="M53.1182 63.3145H72.1582C72.1582 63.3145 70.5466 65.1929 69.037 65.9992C67.5274 66.8056 65.5146 66.9052 65.5146 66.9052H60.4656C60.4656 66.9052 56.44 66.8026 53.1182 63.3145Z" fill="#92E3A9" stroke="#263238" stroke-linecap="round" stroke-linejoin="round"/>
<path d="M52.5131 67.9652C53.3622 67.303 54.0775 66.5165 54.6279 65.6398C54.9072 65.1227 55.3153 64.6688 55.8213 64.3125C56.3273 63.9562 56.9179 63.7068 57.5485 63.5832C58.5685 63.405 61.8767 63.1362 62.4819 62.8675C63.0871 62.5987 63.5019 63.852 63.1857 64.2989C62.8695 64.7459 61.5741 65.1023 60.7683 65.2049C60.2466 65.2898 59.7795 65.5452 59.4593 65.9207C59.9139 66.2325 60.4242 66.4744 60.9689 66.6364C61.8767 66.9052 63.4883 66.9928 64.1921 66.6364C64.8959 66.2801 67.4119 64.6674 67.6159 65.7304C67.8199 66.7935 66.7081 67.2404 66.1029 67.8746C65.4977 68.5088 64.4029 69.6625 63.9915 69.7531C63.5801 69.8437 60.3671 69.8437 58.3543 70.0218C56.3415 70.2 53.9343 71.4533 53.9343 71.4533L52.1221 67.9652H52.5131Z" fill="#999999" stroke="#263238" stroke-linecap="round" stroke-linejoin="round"/>
<path d="M48.79 69.3058C48.79 69.3058 52.0098 67.4273 52.513 67.9649C53.0162 68.5024 55.4336 70.8248 54.8284 71.8093C54.2232 72.7939 50.2996 74.4035 50.2996 74.4035L48.79 69.3058Z" fill="#92E3A9" stroke="#263238" stroke-linecap="round" stroke-linejoin="round"/>
<path d="M33.5884 55.9844C33.5884 55.9844 35.9038 58.2192 36.8116 60.2758C37.7194 62.3324 39.8308 68.1278 40.1334 68.5899C40.436 69.0519 40.9392 69.8432 40.9392 69.8432C40.9392 69.8432 46.1718 68.5899 47.2802 68.5023C48.3886 68.4147 49.4936 69.3056 50.1974 70.4683C50.9012 71.631 53.22 75.1161 52.2136 76.013C51.2072 76.91 42.4488 80.9356 39.8308 81.8235C37.2128 82.7114 34.5948 82.1799 33.3708 80.3135C32.1468 78.4471 27.0298 68.0644 26.0234 65.6484C25.017 63.2324 25.1156 61.2664 25.5202 60.5506" fill="#92E3A9"/>
<path d="M33.5884 55.9844C33.5884 55.9844 35.9038 58.2192 36.8116 60.2758C37.7194 62.3324 39.8308 68.1278 40.1334 68.5899C40.436 69.0519 40.9392 69.8432 40.9392 69.8432C40.9392 69.8432 46.1718 68.5899 47.2802 68.5023C48.3886 68.4147 49.4936 69.3056 50.1974 70.4683C50.9012 71.631 53.22 75.1161 52.2136 76.013C51.2072 76.91 42.4488 80.9356 39.8308 81.8235C37.2128 82.7114 34.5948 82.1799 33.3708 80.3135C32.1468 78.4471 27.0298 68.0644 26.0234 65.6484C25.017 63.2324 25.1156 61.2664 25.5202 60.5506" stroke="#263238" stroke-linecap="round" stroke-linejoin="round"/>
<path d="M37.213 75.7448C37.7162 72.8819 40.953 69.8438 40.953 69.8438C40.953 69.8438 37.3286 71.4534 36.1182 72.7943" stroke="#263238" stroke-linecap="round" stroke-linejoin="round"/>
<path d="M10.1963 138.129H165.461" stroke="#263238" stroke-linecap="round" stroke-linejoin="round"/>
</svg>
