<svg width="18" height="18" viewBox="0 0 18 18" fill="none" xmlns="http://www.w3.org/2000/svg">
<g clip-path="url(#clip0_317_581)">
<path d="M5.66444 12.749C5.35894 12.4435 5.51819 12.5296 4.78132 12.3324C4.44698 12.2427 4.15308 12.0705 3.8873 11.8641L2.29226 15.7749C2.13792 16.1535 2.4262 16.5649 2.83472 16.5494L4.6871 16.4787L5.96116 17.8245C6.24241 18.1212 6.73601 18.0288 6.89034 17.6501L8.72023 13.1635C8.33913 13.3758 7.9162 13.5003 7.47886 13.5003C6.79331 13.5003 6.14925 13.2334 5.66444 12.749ZM15.7079 15.7749L14.1128 11.8641C13.8471 12.0708 13.5532 12.2427 13.2188 12.3324C12.4781 12.5307 12.6405 12.4442 12.3357 12.749C11.8509 13.2334 11.2065 13.5003 10.5209 13.5003C10.0836 13.5003 9.66066 13.3755 9.27956 13.1635L11.1094 17.6501C11.2638 18.0288 11.7577 18.1212 12.0386 17.8245L13.313 16.4787L15.1654 16.5494C15.5739 16.5649 15.8622 16.1532 15.7079 15.7749ZM11.4962 11.9534C12.0334 11.4067 12.0949 11.4538 12.8599 11.2454C13.3482 11.1121 13.73 10.7236 13.8608 10.2265C14.1237 9.2281 14.0555 9.34868 14.7731 8.61814C15.1306 8.25427 15.2702 7.72376 15.1394 7.22665C14.8768 6.22892 14.8764 6.36813 15.1394 5.36935C15.2702 4.87224 15.1306 4.34173 14.7731 3.97786C14.0555 3.24731 14.1237 3.36755 13.8608 2.36946C13.73 1.87235 13.3482 1.48388 12.8599 1.35064C11.8797 1.0831 11.9978 1.15306 11.2796 0.422158C10.9221 0.0582913 10.4007 -0.0840915 9.91237 0.0491507C8.93257 0.316338 9.06933 0.31669 8.08777 0.0491507C7.59944 -0.0840915 7.07808 0.0579397 6.72054 0.422158C6.003 1.15271 6.12112 1.0831 5.14062 1.35064C4.6523 1.48388 4.2705 1.87235 4.13972 2.36946C3.8771 3.36755 3.94495 3.24731 3.22741 3.97786C2.86987 4.34173 2.72995 4.87224 2.86109 5.36935C3.1237 6.36638 3.12405 6.22716 2.86109 7.2263C2.7303 7.72341 2.86987 8.25392 3.22741 8.61814C3.94495 9.34868 3.87675 9.2281 4.13972 10.2265C4.2705 10.7236 4.6523 11.1121 5.14062 11.2454C5.92741 11.4598 5.98612 11.4261 6.50398 11.9534C6.96909 12.427 7.69366 12.5117 8.25265 12.158C8.47618 12.0161 8.73548 11.9408 9.00025 11.9408C9.26501 11.9408 9.52432 12.0161 9.74784 12.158C10.3065 12.5117 11.031 12.427 11.4962 11.9534ZM5.68343 6.18638C5.68343 4.32204 7.16843 2.81067 9.00007 2.81067C10.8317 2.81067 12.3167 4.32204 12.3167 6.18638C12.3167 8.05071 10.8317 9.56208 9.00007 9.56208C7.16843 9.56208 5.68343 8.05071 5.68343 6.18638Z" fill="#66986D"/>
</g>
<defs>
<clipPath id="clip0_317_581">
<rect width="18" height="18" fill="white"/>
</clipPath>
</defs>
</svg>
