<svg width="22" height="22" viewBox="0 0 22 22" fill="none" xmlns="http://www.w3.org/2000/svg">
<path fill-rule="evenodd" clip-rule="evenodd" d="M7.25356 2.53009C10.627 -0.843362 16.0965 -0.843362 19.4699 2.53009C22.8434 5.90353 22.8434 11.373 19.4699 14.7464C17.2293 16.9871 14.0642 17.7385 11.2057 17.0044C11.0366 16.9609 10.9076 17.0118 10.8447 17.0748L6.6563 21.263C6.11586 21.8035 5.35906 22.069 4.59945 21.9846L2.24309 21.7227C1.80092 21.6736 1.38862 21.4754 1.07402 21.1609L0.839119 20.9259C0.524519 20.6114 0.32636 20.199 0.277227 19.7569L0.0154041 17.4005C-0.068997 16.6409 0.196481 15.8841 0.736915 15.3437L4.92492 11.1557C4.98811 11.0925 5.03891 10.963 4.99558 10.7943C4.26152 7.93579 5.01286 4.77077 7.25356 2.53009ZM18.2733 3.72672C15.5607 1.01417 11.1628 1.01417 8.4502 3.72672C6.6498 5.52713 6.04331 8.07037 6.6347 10.3734C6.80514 11.0371 6.66609 11.8078 6.12156 12.3523L1.93356 16.5403C1.75664 16.7173 1.66974 16.965 1.69737 17.2137L1.95919 19.57C1.96588 19.6303 1.99289 19.6865 2.03576 19.7293L2.27067 19.9642C2.31354 20.0071 2.36972 20.034 2.42998 20.0408L4.78634 20.3026C5.03501 20.3302 5.28274 20.2433 5.45965 20.0664L6.25747 19.2686L4.8891 17.9152C4.55684 17.5866 4.5539 17.0509 4.88252 16.7186C5.21114 16.3863 5.74688 16.3834 6.07914 16.7121L7.45412 18.072L9.64797 15.8781C10.1928 15.3333 10.9633 15.195 11.6266 15.3653C13.9296 15.9566 16.4729 15.3502 18.2733 13.5498C20.9859 10.8372 20.9859 6.43928 18.2733 3.72672ZM11.0626 6.54973C12.2742 5.3381 14.2386 5.3381 15.4502 6.54973C16.6619 7.76136 16.6619 9.72578 15.4502 10.9374C14.2386 12.149 12.2742 12.149 11.0626 10.9374C9.85094 9.72578 9.85094 7.76136 11.0626 6.54973ZM14.2537 7.74637C13.7029 7.19563 12.81 7.19563 12.2592 7.74637C11.7085 8.29711 11.7085 9.19 12.2592 9.74079C12.81 10.2915 13.7029 10.2915 14.2537 9.74079C14.8043 9.19 14.8043 8.29711 14.2537 7.74637Z" fill="white"/>
</svg>
