<svg width="96" height="110" viewBox="0 0 96 110" fill="none" xmlns="http://www.w3.org/2000/svg">
<path d="M96 110V0H65.8781V57.5781H65.0113L25.5711 0H0V14.4024C3.61864 13.697 7.2257 15.8744 8.21238 19.4574C8.24775 19.5858 8.27928 19.7144 8.30706 19.8429C11.229 20.0506 13.8337 22.0515 14.649 25.0123C15.128 26.7516 14.9054 28.5167 14.1516 30.0118C15.567 30.9197 16.6635 32.3277 17.1424 34.067C17.8046 36.4716 17.1258 38.9255 15.5564 40.6469C16.3871 41.4795 17.0194 42.5294 17.3527 43.7397C18.3855 47.4902 16.156 51.3608 12.373 52.3847C11.9613 52.4962 11.5481 52.5693 11.1374 52.6063C10.8757 53.1039 10.5953 53.5917 10.2967 54.0684C10.6865 57.4605 8.53495 60.7207 5.10996 61.6478C4.09646 61.9221 3.07429 61.9643 2.10096 61.8069C1.42434 62.1781 0.723527 62.517 0 62.8211V110H30.1219V52.207H30.772L70.8623 110H96Z" fill="#FFB600"/>
</svg>
