<svg width="56" height="51" viewBox="0 0 56 51" fill="none" xmlns="http://www.w3.org/2000/svg">
<path d="M44.0331 28.0562L33.6002 36.4002H19.6001V33.6002H30.9822C31.2354 33.6001 31.4839 33.5312 31.7011 33.4011C31.9183 33.2709 32.0962 33.0842 32.2157 32.861C32.3352 32.6377 32.392 32.3862 32.3799 32.1333C32.3678 31.8803 32.2873 31.6354 32.147 31.4246L29.6606 27.695C29.1505 26.9272 28.4584 26.2976 27.6459 25.8623C26.8334 25.427 25.9259 25.1995 25.0041 25.2001H2.80002C2.05741 25.2001 1.34521 25.4951 0.820106 26.0203C0.295001 26.5454 0 27.2576 0 28.0002V44.8003C0 46.2855 0.590002 47.7099 1.64021 48.7601C2.69042 49.8103 4.11481 50.4003 5.60003 50.4003H32.5894C33.7867 50.4006 34.9702 50.1449 36.0607 49.6504C37.1511 49.1559 38.1232 48.434 38.9118 47.5331L56.0003 28.0002L51.9347 26.645C50.6046 26.2016 49.1845 26.0984 47.8043 26.3449C46.424 26.5914 45.1275 27.1798 44.0331 28.0562ZM48.3227 12.2921C49.5855 10.9901 50.3667 9.18965 50.3667 7.20164C50.3667 5.21363 49.5855 3.41322 48.3227 2.11121C47.6841 1.44475 46.9174 0.914195 46.0686 0.551401C45.2198 0.188608 44.3065 0.00105459 43.3835 1.80367e-07C43.3835 1.80367e-07 39.9002 -0.00840044 36.4002 3.60082C32.9002 -0.00840044 29.417 1.80367e-07 29.417 1.80367e-07C28.4942 0.00117367 27.5811 0.188506 26.7325 0.550784C25.8838 0.913063 25.1169 1.44284 24.4777 2.10841C23.2149 3.41322 22.4337 5.21083 22.4337 7.19884C22.4337 9.18685 23.2149 10.9901 24.4777 12.2893L36.4002 25.2001L48.3227 12.2921Z" fill="#FFB600"/>
</svg>
