<svg width="68" height="68" viewBox="0 0 68 68" fill="none" xmlns="http://www.w3.org/2000/svg">
<g clip-path="url(#clip0_396_167)">
<path d="M35.8379 3.67578C28.0665 3.67578 21.767 9.95282 21.767 17.6965C21.767 23.9568 30.9634 35.367 34.4867 39.5087C35.2003 40.3477 36.4767 40.3477 37.1892 39.5087C40.7125 35.367 49.9089 23.9568 49.9089 17.6965C49.9089 9.95282 43.6093 3.67578 35.8379 3.67578ZM35.8379 22.37C33.2471 22.37 31.1476 20.2781 31.1476 17.6965C31.1476 15.1149 33.2471 13.0229 35.8379 13.0229C38.4288 13.0229 40.5283 15.1149 40.5283 17.6965C40.5283 20.2781 38.4288 22.37 35.8379 22.37ZM5.92267 27.7057C5.25952 27.97 4.69105 28.4262 4.29056 29.0154C3.89007 29.6047 3.67594 30.3 3.67578 31.0117L3.67578 58.8661C3.67578 60.1258 4.95222 60.987 6.12591 60.5197L21.5436 53.5271V27.5911C20.5564 25.8129 19.749 24.0815 19.1706 22.4257L5.92267 27.7057ZM35.8379 43.6982C34.2667 43.6982 32.7803 43.0105 31.7607 41.811C29.5652 39.2294 27.2301 36.2895 25.1172 33.2739V53.526L46.5587 60.6476V33.275C44.4458 36.2895 42.1118 39.2305 39.9152 41.8121C38.8956 43.0105 37.4092 43.6982 35.8379 43.6982ZM65.55 21.6089L50.1322 28.6015V60.6488L65.7532 54.4229C66.4165 54.1587 66.985 53.7026 67.3855 53.1133C67.786 52.524 68.0001 51.8286 68.0001 51.1169V23.2625C68.0001 22.0028 66.7237 21.1416 65.55 21.6089Z" fill="#FFB600"/>
</g>
<defs>
<clipPath id="clip0_396_167">
<rect width="68" height="68" fill="white"/>
</clipPath>
</defs>
</svg>
