<svg width="66" height="66" viewBox="0 0 66 66" fill="none" xmlns="http://www.w3.org/2000/svg">
<path d="M44 27.5C44 30.4174 42.8411 33.2153 40.7782 35.2782C38.7153 37.3411 35.9174 38.5 33 38.5C30.0826 38.5 27.2847 37.3411 25.2218 35.2782C23.1589 33.2153 22 30.4174 22 27.5C22 24.5826 23.1589 21.7847 25.2218 19.7218C27.2847 17.6589 30.0826 16.5 33 16.5C35.9174 16.5 38.7153 17.6589 40.7782 19.7218C42.8411 21.7847 44 24.5826 44 27.5Z" fill="#FFB600"/>
<path fill-rule="evenodd" clip-rule="evenodd" d="M31.878 60.478C17.2109 59.8895 5.5 47.8115 5.5 33C5.5 17.8118 17.8118 5.5 33 5.5C48.1883 5.5 60.5 17.8118 60.5 33C60.5 48.1882 48.1883 60.5 33 60.5C32.8744 60.5008 32.7488 60.5008 32.6233 60.5C32.3744 60.5 32.1255 60.4918 31.878 60.478ZM15.3533 50.3525C15.1476 49.762 15.0777 49.1328 15.1485 48.5116C15.2193 47.8904 15.4292 47.2931 15.7624 46.7641C16.0957 46.2351 16.5438 45.7879 17.0735 45.4558C17.6033 45.1237 18.201 44.9151 18.8224 44.8456C29.5419 43.659 36.5241 43.7663 47.1914 44.8704C47.8136 44.9352 48.4128 45.1411 48.9434 45.4725C49.4739 45.8038 49.9219 46.2519 50.2532 46.7826C50.5844 47.3133 50.7902 47.9125 50.8548 48.5347C50.9194 49.1569 50.8412 49.7857 50.6261 50.3731C55.1979 45.7475 57.7582 39.5037 57.75 33C57.75 19.3311 46.6689 8.25 33 8.25C19.3311 8.25 8.25 19.3311 8.25 33C8.25 39.7595 10.9601 45.8865 15.3533 50.3525Z" fill="#FFB600"/>
</svg>
